HIERARCHY
ROOT hip
{
	OFFSET 0.000000 0.000000 0.000000 
	CHANNELS 6 Xposition Yposition Zposition Xrotation Zrotation Yrotation
	JOINT abdomen
	{
		OFFSET 0.000000 3.402643 0.000000 
		CHANNELS 3 Xrotation Zrotation Yrotation
		JOINT chest
		{
			OFFSET 0.000000 8.438565 -0.680529 
			CHANNELS 3 Xrotation Zrotation Yrotation
			JOINT neck
			{
				OFFSET 0.000000 10.207942 -0.272212 
				CHANNELS 3 Xrotation Zrotation Yrotation
				JOINT head
				{
					OFFSET 0.000000 3.130431 0.000000 
					CHANNELS 3 Xrotation Zrotation Yrotation
					End Site
					{
						OFFSET 0.000000 3.130435 0.000000 
					}
				}
			}
			JOINT lCollar
			{
				OFFSET 3.470700 6.669187 -0.816635 
				CHANNELS 3 Yrotation Zrotation Xrotation
				JOINT lShldr
				{
					OFFSET 3.198488 0.000000 0.000000 
					CHANNELS 3 Zrotation Yrotation Xrotation
					JOINT lForeArm
					{
						OFFSET 10.139888 0.000000 0.000000 
						CHANNELS 3 Yrotation Zrotation Xrotation
						JOINT lHand
						{
							OFFSET 8.370511 0.000000 0.000000 
							CHANNELS 3 Zrotation Yrotation Xrotation
							End Site
							{
								OFFSET 4.083176 0.000000 0.000000 
							}
						}
					}
				}
			}
			JOINT rCollar
			{
				OFFSET -3.470700 6.669187 -0.816635 
				CHANNELS 3 Yrotation Zrotation Xrotation
				JOINT rShldr
				{
					OFFSET -3.198488 0.000000 0.000000 
					CHANNELS 3 Zrotation Yrotation Xrotation
					JOINT rForeArm
					{
						OFFSET -10.139888 0.000000 0.000000 
						CHANNELS 3 Yrotation Zrotation Xrotation
						JOINT rHand
						{
							OFFSET -8.370511 0.000000 0.000000 
							CHANNELS 3 Zrotation Yrotation Xrotation
							End Site
							{
								OFFSET -4.083176 0.000000 0.000000 
							}
						}
					}
				}
			}
		}
	}
	JOINT lThigh
	{
		OFFSET 5.308129 -1.633274 1.361059 
		CHANNELS 3 Xrotation Zrotation Yrotation
		JOINT lShin
		{
			OFFSET -2.041588 -20.007561 0.000000 
			CHANNELS 3 Xrotation Zrotation Yrotation
			JOINT lFoot
			{
				OFFSET 0.000000 -19.190928 -1.224953 
				CHANNELS 3 Xrotation Yrotation Zrotation
				End Site
				{
					OFFSET 0.000000 -2.449906 4.627600 
				}
			}
		}
	}
	JOINT rThigh
	{
		OFFSET -5.308129 -1.633274 1.361059 
		CHANNELS 3 Xrotation Zrotation Yrotation
		JOINT rShin
		{
			OFFSET 2.041588 -20.007561 0.000000 
			CHANNELS 3 Xrotation Zrotation Yrotation
			JOINT rFoot
			{
				OFFSET 0.000000 -19.190928 -1.224953 
				CHANNELS 3 Xrotation Yrotation Zrotation
				End Site
				{
					OFFSET 0.000000 -2.449906 4.627600 
				}
			}
		}
	}
}
MOTION
Frames: 11
Frame Time: 0.033333
0.812509 52.200146 0.183609 0.527344 -0.351562 58.330063 30.587284 -6.384798 -4.729669 -5.615234 9.697266 10.411801 51.063168 8.107644 2.471410 -31.748045 -32.324215 -2.407565 2.000000 -2.000000 0.000000 -79.951172 1.347656 13.818592 -51.633751 -1.967246 -2.082215 11.612627 57.132317 11.477376 -2.000000 2.000000 0.000000 75.488281 -5.283204 4.344803 51.602615 1.669657 -2.011850 -35.346855 -61.672413 25.498709 -13.385303 11.364429 -0.306988 10.671428 -5.184502 -1.185342 3.664728 4.449365 -10.795894 4.959245 -10.701654 -16.126575 18.122536 4.488507 1.636619 -5.507946 -5.105133 12.174069 
1.780221 52.176273 0.100049 1.044922 -0.175781 57.099583 30.716902 -7.723622 -4.500308 -7.910156 10.068360 10.431394 51.063168 8.107644 2.471410 -29.404299 -32.587887 -2.919922 2.000000 -2.000000 0.000000 -82.177734 4.580078 13.007813 -51.281086 -1.847414 -2.040311 12.434608 57.210991 10.595032 -2.000000 2.000000 0.000000 77.968750 -8.906250 2.431640 51.602600 1.679406 -2.011283 -39.910686 -63.781193 28.219938 -12.701162 10.416945 -1.565316 12.089061 -5.058312 -1.623941 3.860931 6.257061 -12.811404 5.370127 -12.264997 -15.961764 18.998482 4.507195 1.533432 -4.237180 -4.175941 10.395719 
2.891143 52.146671 0.119686 1.572266 0.000000 55.888676 30.499189 -8.661515 -4.256128 -9.335938 10.175782 10.538836 51.063168 8.107644 2.471410 -27.597658 -33.203121 -3.544925 2.000000 -2.000000 0.000000 -83.408203 6.435547 11.641720 -51.105877 -1.966109 -2.062724 12.728575 56.990177 10.920808 -2.000000 2.000000 0.000000 80.166016 -11.259766 1.062546 51.602600 1.679406 -2.011283 -42.431885 -65.438339 30.189310 -11.921637 9.402702 -1.957778 12.783789 -4.850673 -1.876940 3.636487 7.910307 -13.935939 5.307057 -13.527858 -15.685531 20.053936 4.419542 1.778128 -2.205118 -3.302513 9.432405 
4.227333 52.068897 0.414511 1.933594 0.166016 54.648434 29.901852 -8.926100 -3.773019 -9.404296 9.345703 10.401977 51.063168 8.107644 2.471410 -26.582033 -34.052731 -3.574220 2.000000 -2.000000 0.000000 -82.763672 5.585938 10.645482 -51.104797 -1.836528 -2.021389 12.319981 56.574570 11.325798 -2.000000 2.000000 0.000000 82.128906 -11.611329 0.078125 51.954437 1.670226 -2.021595 -40.808125 -66.438942 29.659006 -10.655690 8.499667 -1.652783 13.842524 -4.871489 -1.779417 1.874162 8.121773 -14.642070 5.133577 -15.161997 -15.274977 21.985292 4.341116 1.916402 0.501829 -3.038365 8.595840 
5.659509 52.019104 0.727955 2.109375 0.341797 53.623108 29.288725 -8.789152 -3.304385 -8.769532 8.320313 10.312500 51.063168 8.107644 2.471410 -26.582035 -35.039059 -3.535155 2.000000 -2.000000 0.000000 -80.937500 3.515625 9.638672 -51.281658 -1.966109 -2.062724 11.927078 55.719791 13.114093 -2.000000 2.000000 0.000000 83.623047 -10.410156 -0.957031 52.131618 1.780877 -2.073832 -36.301105 -67.031540 27.047018 -9.155373 7.564527 -0.661182 14.733391 -4.986752 -1.874082 -0.046128 8.262974 -14.975525 3.835351 -16.879055 -13.651439 24.983831 4.224181 2.137876 5.148118 -2.587268 6.700364 
6.938916 52.003128 0.983958 2.265625 0.498047 52.744099 28.904425 -8.733252 -3.062867 -8.271483 7.783205 10.186870 51.063168 8.107644 2.471410 -26.757814 -36.220699 -3.330081 2.000000 -2.000000 0.000000 -79.218750 1.660156 9.433880 -51.457985 -1.957497 -2.082784 10.478410 54.755630 13.174967 -2.000000 2.000000 0.000000 85.097656 -9.433594 -2.099609 52.307404 1.780877 -2.073831 -33.283585 -67.105217 25.427889 -7.584270 6.969401 0.097278 14.894665 -5.095595 -1.530069 -0.991296 8.098433 -15.184667 1.423433 -18.536436 -11.147757 29.567871 4.420395 2.438519 13.217634 -2.422921 4.802803 
7.945810 51.854877 1.222578 2.109375 0.683594 52.226681 29.425974 -8.970604 -2.988171 -8.447266 7.802735 10.167342 51.063168 8.107644 2.471410 -27.431644 -37.158203 -2.929689 2.000000 -2.000000 0.000000 -77.617188 0.537109 11.064546 -51.985859 -1.958633 -2.102275 7.264843 54.082375 10.673176 -2.000000 2.000000 0.000000 85.976563 -9.003906 -3.565982 52.483463 1.771696 -2.084144 -32.855488 -67.482185 25.164980 -6.296350 6.540291 1.346296 14.894420 -5.068971 -1.488154 -2.250415 7.339920 -15.099385 -2.490491 -20.204441 -9.712942 33.797462 4.205663 2.898467 28.210423 -1.889571 2.220562 
8.808104 52.447632 1.495544 1.572266 1.044922 51.708984 29.981672 -9.272937 -3.157042 -8.593749 8.134768 10.099038 51.063168 8.107644 2.471410 -28.583984 -37.998043 -2.470704 2.000000 -2.000000 0.000000 -76.220703 -0.546875 14.003884 -52.337708 -1.949453 -2.112589 3.744014 53.283016 7.309849 -2.000000 2.000000 0.000000 86.669922 -8.554688 -5.353013 52.482361 1.642116 -2.042788 -32.800591 -67.705818 25.013144 -4.791428 6.459857 2.629659 15.770409 -5.097739 -1.563913 -4.021364 6.749886 -14.871819 -5.722294 -21.050955 -10.245893 39.211380 3.889727 3.274532 32.795570 -4.392969 1.778860 
9.564580 52.401367 1.822052 1.054688 1.376949 51.357746 30.865379 -9.660808 -3.180871 -8.750000 8.486329 10.020972 51.063168 8.107644 2.471410 -30.107422 -38.359375 -1.738283 2.000000 -2.000000 0.000000 -74.726563 -1.328125 16.181641 -52.514019 -1.950589 -2.132079 2.040366 52.839817 5.664069 -2.000000 2.000000 0.000000 87.324219 -8.144533 -6.554117 52.482361 1.642116 -2.042788 -34.441769 -67.539940 25.912302 -3.436627 6.550354 3.724756 16.640522 -5.098556 -1.646436 -5.959251 6.130643 -14.478939 -8.905234 -21.684261 -12.012820 45.360886 3.479201 3.506248 33.187309 -8.420147 6.122974 
10.244352 52.299637 2.272251 0.527344 1.552732 51.162415 31.617748 -10.103317 -3.477388 -9.062501 9.003906 9.990233 51.063168 8.107644 2.471410 -31.621096 -38.710938 -1.181642 2.000000 -2.000000 0.000000 -73.242188 -2.109375 18.535154 -52.514019 -1.950589 -2.132079 2.570769 52.801571 5.378782 -2.000000 2.000000 0.000000 87.773438 -7.656250 -7.441407 52.482361 1.642116 -2.042788 -36.672626 -66.839897 27.079077 -2.380511 6.876797 4.335571 17.530027 -5.050315 -1.744446 -7.380970 5.088040 -14.842658 -12.098398 -22.270140 -13.871425 50.816517 3.095470 3.917998 30.689474 -12.753777 11.515724 
10.970364 52.202892 2.791765 0.000000 1.748047 51.152348 32.307705 -10.342818 -3.424870 -9.208984 9.511719 10.136719 51.063168 8.107644 2.471410 -33.144531 -39.052734 -0.523733 2.000000 -2.000000 0.000000 -71.767578 -2.900391 20.429195 -52.161907 -1.959202 -2.112020 4.415100 52.640846 5.888700 -2.000000 2.000000 0.000000 87.998047 -7.294921 -7.705078 52.482361 1.642116 -2.042788 -40.789497 -65.721390 29.860054 -1.103058 7.163128 5.078211 18.266695 -5.028877 -1.802579 -9.208736 4.827441 -14.034389 -14.725960 -22.244156 -15.537850 53.605907 2.882434 3.929972 27.293783 -15.752820 15.131971 
